<svg xmlns="http://www.w3.org/2000/svg" viewBox="0 0 24 24">
  <path d="M4 3C2.895 3 2 3.895 2 5L2 15C2 15.366054 2.1058114 15.704939 2.2773438 16C2.1058114 16.295061 2 16.633946 2 17L2 19C2 20.105 2.895 21 4 21L20 21C21.105 21 22 20.105 22 19L22 17C22 16.633946 21.894189 16.295061 21.722656 16C21.894189 15.704939 22 15.366054 22 15L22 5C22 3.895 21.105 3 20 3L4 3 z M 4 5L20 5L20.001953 15L4 15L4 5 z M 4 17L14 17L14 19L4 19L4 17 z M 17 17C17.552 17 18 17.448 18 18C18 18.552 17.552 19 17 19C16.448 19 16 18.552 16 18C16 17.448 16.448 17 17 17 z" fill="#4D4D4D" />
</svg>