<svg xmlns="http://www.w3.org/2000/svg" viewBox="0 0 24 24">
  <path d="M6.4394531 1.9199219C5.8594531 1.9299219 5.279375 2.1307813 4.859375 2.5507812L3.7304688 3.6699219C3.3204687 4.0899219 3.0896094 4.6504687 3.0996094 5.2304688C3.1096094 5.8204687 3.3492969 6.3695313 3.7792969 6.7695312L8.640625 11.359375L8.6308594 11.369141L10.089844 12.740234L11.289062 13.880859L12.740234 15.259766L12.75 15.25L15.359375 17.730469L15.375 17.746094C15.473051 18.346879 15.716641 18.910304 16.080078 19.326172C16.654078 19.984172 17.571328 20.188641 19.236328 20.556641C19.829328 20.686641 20.32225 20.774078 20.65625 20.830078L22.029297 21.060547L21.808594 19.685547C21.761594 19.396547 21.686125 18.966266 21.578125 18.447266C21.206125 16.666266 21.002312 15.686844 20.320312 15.089844C19.9515 14.767882 19.465282 14.539271 18.941406 14.421875L18.939453 14.419922L18.929688 14.410156L17.279297 12.630859L16.359375 11.640625L15 10.169922L12.519531 7.4804688L12.509766 7.4902344L7.9804688 2.6191406C7.5804687 2.1791406 7.0194531 1.9299219 6.4394531 1.9199219 z M 18.410156 2C18.160156 2 17.900938 2.0990625 17.710938 2.2890625L13.929688 6.0703125L17.779297 10.220703L21.710938 6.2890625C22.100938 5.8990625 22.100938 5.2708594 21.710938 4.8808594L19.119141 2.2890625C18.929141 2.0990625 18.670156 2 18.410156 2 z M 6.390625 3.9199219C6.410625 3.9199219 6.4597656 3.9207031 6.5097656 3.9707031L11.099609 8.9003906L12.460938 10.369141L12.628906 10.548828L11.707031 11.505859L11.509766 11.320312L10.050781 9.9492188L5.1503906 5.3105469C5.1103906 5.2805469 5.0996094 5.2292188 5.0996094 5.1992188C5.0996094 5.1692187 5.1103906 5.1298438 5.1503906 5.0898438L6.2792969 3.9609375C6.3092969 3.9209375 6.360625 3.9199219 6.390625 3.9199219 z M 18.410156 4.4101562L19.589844 5.5898438L18.539062 6.640625L17.359375 5.4609375L18.410156 4.4101562 z M 13.994141 12.013672L14 12.019531L14.949219 13.050781L16.490234 14.710938L15.800781 15.390625L14.160156 13.839844L13.160156 12.890625L13.154297 12.884766L13.994141 12.013672 z M 7.2207031 12.779297L5 15C5 15 6.01 15.01 6.5 15.5C6.97 15.97 6.9804687 16.900469 6.9804688 16.980469C6.9804688 16.980469 8 17 8.5 17.5C9 18 9 19 9 19L11.330078 16.669922L7.2207031 12.779297 z M 18.177734 16.326172C18.494734 16.326172 18.823906 16.43675 19.003906 16.59375C19.170906 16.76275 19.3745 17.684078 19.5625 18.580078C18.6965 18.388078 17.754891 18.175719 17.587891 18.011719C17.309891 17.693719 17.178016 16.911828 17.541016 16.548828C17.699016 16.390828 17.934734 16.326172 18.177734 16.326172 z M 3.6699219 17L3 21L7 20.330078L3.6699219 17 z" fill="#4D4D4D" />
</svg>