<svg xmlns="http://www.w3.org/2000/svg" viewBox="0 0 24 24">
  <path d="M5 3C3.895 3 3 3.895 3 5L3 19C3 20.105 3.895 21 5 21L16.171875 21L14.171875 19L5 19L5 5L19 5L19 14.171875L21 16.171875L21 5C21 3.895 20.105 3 19 3L5 3 z M 7 7L7 9L17 9L17 7L7 7 z M 7 11L7 13L12 13L12 11L7 11 z M 15 15L15 17L20.146484 22.146484L22.146484 20.146484L17 15L15 15 z M 22.853516 20.853516L20.853516 22.853516L21.853516 23.853516C22.048516 24.048516 22.365547 24.048516 22.560547 23.853516L23.853516 22.560547C24.048516 22.364547 24.048516 22.048516 23.853516 21.853516L22.853516 20.853516 z" fill="#4D4D4D" />
</svg>