<svg xmlns="http://www.w3.org/2000/svg" viewBox="0 0 24 24">
  <path d="M7.984375 5L3 11.697266L3 12.027344L3 14.027344L3 17.027344C3 18.130344 3.897 19.027344 5 19.027344L9 19.027344C10.103 19.027344 11 18.130344 11 17.027344L11 13.027344C11 11.925344 10.103 11.027344 9 11.027344L5.9902344 11.027344L10.478516 5L7.984375 5 z M 17.964844 5L13 11.669922L13 12L13 14L13 17C13 18.103 13.897 19 15 19L19 19C20.103 19 21 18.103 21 17L21 13C21 11.897 20.103 11 19 11L15.990234 11L20.457031 5L17.964844 5 z" fill="#C9C9C9" />
</svg>